:FULLY-SPECIFIED
:DEGREES
1871
root 7.98022 16.5347 -2.99834 4997.4 -94.8087 -4981.69
lowerback -0.0452222 3.56689 3.83467
upperback 2.06702 4.70098 -0.630006
thorax 2.51519 2.42216 -2.66921
lowerneck -19.2865 2.39318 -0.952573
upperneck 33.9348 2.68596 1.14223
head 15.0137 0.913359 1.06226
rclavicle -2.38542e-015 3.57812e-015
rhumerus -17.3192 6.38765 -83.0376
rradius 45.7442
rwrist 11.7961
rhand -27.5408 -12.6338
rfingers 7.12502
rthumb -0.942391 -42.6115
lclavicle -2.38542e-015 3.57812e-015
lhumerus -37.0341 0.535386 84.0736
lradius 28.3043
lwrist 4.50422
lhand -24.6759 5.8651
lfingers 7.12502
lthumb 1.82459 35.837
rfemur -2.6751 5.71518 27.971
rtibia 18.2268
rfoot -13.3159 -4.31918
rtoes -19.1111
lfemur -42.5886 -1.22795 -13.5825
ltibia 10.2325
lfoot -12.6086 11.4453
ltoes -15.7277
1872
root 7.95051 16.4973 -2.9824 4996.2 -95.0578 -4980.48
lowerback -0.196428 3.63223 3.91897
upperback 2.02044 4.78348 -0.659198
thorax 2.56817 2.46599 -2.73424
lowerneck -19.2039 2.36129 -0.84532
upperneck 34.0986 2.5092 1.33852
head 15.0724 0.874295 1.09346
rclavicle 5.56597e-015 -6.36111e-015
rhumerus -17.287 6.19066 -83.1384
rradius 45.9042
rwrist 11.7246
rhand -27.7257 -12.7829
rfingers 7.12502
rthumb -1.12095 -42.7597
lclavicle 5.56597e-015 -6.36111e-015
lhumerus -37.2429 0.689408 83.8968
lradius 27.8207
lwrist 4.55153
lhand -24.6539 6.32825
lfingers 7.12502
lthumb 1.84585 36.3
rfemur -1.79734 5.44591 28.0894
rtibia 18.3801
rfoot -12.9378 -3.57205
rtoes -20.2806
lfemur -42.9171 0.00210614 -14.5446
ltibia 11.309
lfoot -11.4389 9.67872
ltoes -15.5748
1873
root 7.91293 16.4668 -2.96539 4997.24 -95.1501 -4981.52
lowerback -0.421877 3.67735 3.70404
upperback 2.00729 4.84143 -0.73684
thorax 2.67404 2.49355 -2.67758
lowerneck -19.2501 2.34269 -0.763451
upperneck 34.2868 2.36396 1.53644
head 15.172 0.845726 1.13836
rclavicle 4.05521e-014 -1.27222e-014
rhumerus -17.2692 6.03513 -83.2553
rradius 46.0644
rwrist 11.8443
rhand -27.7848 -12.9122
rfingers 7.12502
rthumb -1.17804 -42.8887
lclavicle 4.05521e-014 -1.27222e-014
lhumerus -37.4183 0.917559 83.6963
lradius 27.3664
lwrist 4.35822
lhand -24.5956 6.57305
lfingers 7.12502
lthumb 1.9021 36.5443
rfemur -0.9382 5.28852 27.905
rtibia 18.5604
rfoot -12.3919 -2.81459
rtoes -21.4823
lfemur -43.4583 0.735648 -15.3847
ltibia 13.3319
lfoot -10.1949 7.9564
ltoes -14.5171
1874
root 7.87103 16.4478 -2.94852 4998.42 -95.2676 -4982.72
lowerback -0.579133 3.74275 3.46017
upperback 1.97211 4.93038 -0.799269
thorax 2.71697 2.53427 -2.59346
lowerneck -19.2515 2.31914 -0.666678
upperneck 34.3991 2.23052 1.67653
head 15.2273 0.818296 1.15713
rclavicle 3.26007e-014 1.90833e-014
rhumerus -17.4541 5.82143 -83.3932
rradius 46.3157
rwrist 12.0056
rhand -27.8077 -13.0438
rfingers 7.12502
rthumb -1.20019 -43.0202
lclavicle 3.26007e-014 1.90833e-014
lhumerus -37.6672 1.03047 83.5388
lradius 27.0521
lwrist 4.13286
lhand -24.3464 6.7615
lfingers 7.12502
lthumb 2.14284 36.7305
rfemur -0.274881 5.14693 27.7035
rtibia 19.0791
rfoot -11.6797 -2.10534
rtoes -23.6238
lfemur -43.8523 0.930188 -15.6773
ltibia 15.5931
lfoot -7.49513 7.08718
ltoes -13.5439
1875
root 7.83939 16.4326 -2.9316 4997.85 -95.4265 -4982.11
lowerback -0.586437 3.77042 3.34461
upperback 1.85424 4.97234 -0.810706
thorax 2.59309 2.55015 -2.54409
lowerneck -19.1379 2.27721 -0.603441
upperneck 34.4544 2.09013 1.79155
head 15.2292 0.780481 1.16715
rclavicle -7.31528e-014 -3.10104e-014
rhumerus -17.8041 5.63378 -83.5631
rradius 46.6185
rwrist 12.0473
rhand -27.8728 -13.1329
rfingers 7.12502
rthumb -1.26304 -43.1089
lclavicle -7.31528e-014 -3.10104e-014
lhumerus -37.9274 1.16164 83.4058
lradius 26.6776
lwrist 3.70905
lhand -24.0479 6.91798
lfingers 7.12502
lthumb 2.43114 36.8839
rfemur -0.0369359 4.99476 27.6533
rtibia 20.1672
rfoot -10.936 -1.33848
rtoes -25.1187
lfemur -44.4068 1.00563 -15.6616
ltibia 17.8647
lfoot -3.34886 6.92837
ltoes -10.8121
1876
root 7.81025 16.4258 -2.91439 5002.61 -94.9074 -4986.89
lowerback -0.48 3.7322 2.39498
upperback 1.76116 4.94669 -1.05324
thorax 2.37409 2.51867 -2.28028
lowerneck -19.1948 2.24756 -0.539699
upperneck 34.5857 1.95095 1.95534
head 15.3063 0.749871 1.20204
rclavicle -6.20208e-014 8.74653e-015
rhumerus -18.1911 5.29043 -83.7905
rradius 46.8997
rwrist 12.0985
rhand -27.8962 -13.3202
rfingers 7.12502
rthumb -1.2857 -43.296
lclavicle -6.20208e-014 8.74653e-015
lhumerus -38.1024 1.19384 83.2902
lradius 26.3914
lwrist 3.52143
lhand -23.6563 7.06847
lfingers 7.12502
lthumb 2.80931 37.0297
rfemur -0.161617 4.82197 26.7094
rtibia 21.9949
rfoot -10.2929 -0.546655
rtoes -26.346
lfemur -44.9205 1.40794 -16.9796
ltibia 20.0711
lfoot -1.64164 6.1562
ltoes -11.9827
1877
root 7.78105 16.4263 -2.89737 5012.86 -94.1871 -4997.14
lowerback -0.4133 3.65798 0.968517
upperback 1.74131 4.87345 -1.35466
thorax 2.21687 2.45731 -1.8083
lowerneck -19.3042 2.22251 -0.576334
upperneck 34.6105 1.88149 2.08099
head 15.3426 0.733957 1.25089
rclavicle -1.59028e-015 4.69132e-014
rhumerus -18.5704 4.97785 -83.9802
rradius 47.1558
rwrist 12.2895
rhand -28.043 -13.2984
rfingers 7.12502
rthumb -1.42747 -43.2733
lclavicle -1.59028e-015 4.69132e-014
lhumerus -38.1426 1.31528 83.2002
lradius 26.0165
lwrist 2.99149
lhand -23.164 7.0593
lfingers 7.12502
lthumb 3.28472 37.0137
rfemur -0.75287 4.66772 25.3196
rtibia 24.5673
rfoot -9.50298 0.23431
rtoes -26.9062
lfemur -45.3353 1.86467 -18.7696
ltibia 22.2047
lfoot -0.709789 4.95341
ltoes -8.69689
1878
root 7.75739 16.4216 -2.88361 5026.54 -93.6677 -5010.78
lowerback -0.390124 3.58415 -0.444326
upperback 1.73919 4.79523 -1.65519
thorax 2.1076 2.39417 -1.3389
lowerneck -19.3291 2.21042 -0.63244
upperneck 34.475 1.84885 2.20594
head 15.2815 0.735024 1.30578
rclavicle -2.14687e-014 4.77083e-015
rhumerus -19.0114 4.61038 -84.228
rradius 47.3956
rwrist 12.5208
rhand -28.1785 -13.3572
rfingers 7.12502
rthumb -1.55829 -43.3313
lclavicle -2.14687e-014 4.77083e-015
lhumerus -38.0834 1.27946 83.1675
lradius 25.6698
lwrist 2.62811
lhand -22.9405 7.11441
lfingers 7.12502
lthumb 3.5006 37.0654
rfemur -1.87433 4.39258 23.9583
rtibia 27.7842
rfoot -8.32844 1.02943
rtoes -27.7618
lfemur -45.5919 2.10433 -20.2899
ltibia 24.2388
lfoot -0.445411 5.06262
ltoes -10.461
1879
root 7.73657 16.411 -2.86917 5034.48 -93.3849 -5018.66
lowerback -0.415349 3.52209 -1.12494
upperback 1.78379 4.72289 -1.9068
thorax 2.13259 2.34638 -1.2184
lowerneck -19.4204 2.19556 -0.643795
upperneck 34.315 1.79506 2.34625
head 15.2258 0.737113 1.3562
rclavicle -1.74931e-014 -1.59028e-014
rhumerus -19.387 4.09075 -84.5981
rradius 47.4299
rwrist 12.7881
rhand -28.3894 -13.3203
rfingers 7.12502
rthumb -1.762 -43.2928
lclavicle -1.74931e-014 -1.59028e-014
lhumerus -37.7944 1.00262 83.0936
lradius 25.1979
lwrist 2.33981
lhand -22.6833 6.78998
lfingers 7.12502
lthumb 3.74893 36.7368
rfemur -3.2514 3.61652 23.1084
rtibia 31.3193
rfoot -6.59962 2.01302
rtoes -27.0448
lfemur -45.9015 2.45238 -21.2948
ltibia 26.315
lfoot -0.50569 5.17486
ltoes -11.9272
1880
root 7.72045 16.4053 -2.85614 5039.12 -93.185 -5023.43
lowerback -0.2397 3.4872 -1.44576
upperback 1.85289 4.67599 -2.13973
thorax 2.09869 2.31738 -1.2894
lowerneck -19.3971 2.19482 -0.644924
upperneck 34.1632 1.74451 2.51035
head 15.1476 0.743578 1.41313
rclavicle -1.59028e-014 4.37326e-014
rhumerus -19.8287 3.44741 -85.0484
rradius 47.3504
rwrist 13.0098
rhand -28.7118 -13.3144
rfingers 7.12502
rthumb -2.07338 -43.2841
lclavicle -1.59028e-014 4.37326e-014
lhumerus -37.4698 0.611365 82.9727
lradius 24.768
lwrist 1.94332
lhand -22.2713 6.81044
lfingers 7.12502
lthumb 4.1468 36.7498
rfemur -4.65677 2.58127 22.4829
rtibia 34.9868
rfoot -4.21453 2.96646
rtoes -25.3525
lfemur -45.9975 2.75673 -21.9568
ltibia 28.2829
lfoot -0.822494 4.17122
ltoes -12.9742
1881
root 7.70715 16.3942 -2.83859 5040.91 -92.9997 -5025.4
lowerback -0.0197599 3.46926 -1.44873
upperback 1.93369 4.64615 -2.34926
thorax 2.07559 2.30262 -1.51404
lowerneck -19.3772 2.20853 -0.590326
upperneck 34.1187 1.71856 2.58942
head 15.1226 0.752336 1.4309
rclavicle 1.82882e-014 3.97569e-015
rhumerus -20.3363 2.83602 -85.5038
rradius 47.1852
rwrist 13.19
rhand -29.0163 -13.2379
rfingers 7.12502
rthumb -2.36748 -43.2045
lclavicle 1.82882e-014 3.97569e-015
lhumerus -37.0635 0.0971608 82.865
lradius 24.2908
lwrist 1.56327
lhand -22.0323 6.69421
lfingers 7.12502
lthumb 4.3776 36.629
rfemur -6.151 1.48751 22.0038
rtibia 38.7109
rfoot -1.17742 3.51387
rtoes -21.746
lfemur -45.9993 2.89333 -22.3634
ltibia 30.1899
lfoot -1.43629 2.71771
ltoes -10.4204
1882
root 7.69107 16.3965 -2.81607 5044.98 -92.9122 -5029.76
lowerback 0.231164 3.42244 -1.57946
upperback 2.02911 4.57658 -2.49448
thorax 2.03376 2.26502 -1.60452
lowerneck -19.3495 2.30488 -0.56449
upperneck 34.2425 1.86514 2.52687
head 15.1721 0.804134 1.42833
rclavicle 8.26944e-014 -3.65764e-014
rhumerus -20.7554 2.5818 -85.9022
rradius 46.7772
rwrist 13.1441
rhand -29.2152 -13.2285
rfingers 7.12502
rthumb -2.55959 -43.1929
lclavicle 8.26944e-014 -3.65764e-014
lhumerus -36.7538 -0.205492 82.8028
lradius 23.9522
lwrist 1.08118
lhand -21.6368 6.57827
lfingers 7.12502
lthumb 4.75947 36.5048
rfemur -7.52339 0.398447 21.3436
rtibia 42.3779
rfoot 1.94208 3.78184
rtoes -19.8777
lfemur -45.603 2.8867 -22.785
ltibia 31.7375
lfoot -2.1595 2.21511
ltoes -10.3335
1883
root 7.68191 16.387 -2.79109 5043.03 -92.8842 -5027.97
lowerback 0.302136 3.34783 -1.4131
upperback 2.08551 4.47461 -2.49036
thorax 2.06248 2.21684 -1.69644
lowerneck -19.3036 2.49617 -0.460466
upperneck 34.4804 2.18135 2.28559
head 15.2723 0.907663 1.36945
rclavicle 2.8625e-014 -8.74653e-015
rhumerus -21.1121 2.6325 -86.2455
rradius 46.2669
rwrist 13.1167
rhand -29.2941 -13.1257
rfingers 7.12502
rthumb -2.63578 -43.0892
lclavicle 2.8625e-014 -8.74653e-015
lhumerus -36.4172 -0.325026 82.7877
lradius 23.7036
lwrist 0.743516
lhand -21.1935 6.57006
lfingers 7.12502
lthumb 5.18754 36.4866
rfemur -9.11743 -0.270158 21.0958
rtibia 45.9889
rfoot 4.00568 3.86367
rtoes -20.7724
lfemur -45.2069 2.9156 -22.8171
ltibia 32.933
lfoot -2.83502 2.11705
ltoes -10.6952
1884
root 7.66876 16.4034 -2.76505 5045.65 -92.9259 -5030.75
lowerback 0.28836 3.24495 -1.50263
upperback 2.14522 4.33897 -2.50413
thorax 2.12324 2.14661 -1.6603
lowerneck -19.2613 2.71989 -0.388762
upperneck 34.8053 2.56512 2.00882
head 15.4161 1.02603 1.31463
rclavicle -4.85035e-014 -4.13472e-014
rhumerus -21.4188 2.79985 -86.5326
rradius 45.6831
rwrist 13.4491
rhand -28.8211 -13.3794
rfingers 7.12502
rthumb -2.17891 -43.348
lclavicle -4.85035e-014 -4.13472e-014
lhumerus -36.131 -0.358109 82.7808
lradius 23.607
lwrist 0.231298
lhand -20.5945 6.70233
lfingers 7.12502
lthumb 5.76586 36.6039
rfemur -10.7155 -0.792632 20.6307
rtibia 49.4575
rfoot 5.20806 4.12492
rtoes -20.6989
lfemur -44.4356 2.96957 -23.1
ltibia 33.6955
lfoot -3.63747 1.7494
ltoes -9.69147
1885
root 7.65757 16.4363 -2.73962 5050 -93.0883 -5035.19
lowerback 0.13038 3.17895 -1.65622
upperback 2.22728 4.25893 -2.56319
thorax 2.28834 2.10242 -1.62493
lowerneck -19.3367 2.91851 -0.308432
upperneck 35.1522 2.91374 1.73076
head 15.6027 1.12984 1.25387
rclavicle -1.82882e-014 2.54444e-014
rhumerus -21.5148 3.04344 -86.8499
rradius 44.9016
rwrist 13.5318
rhand -28.5674 -13.1524
rfingers 7.12502
rthumb -1.93391 -43.1233
lclavicle -1.82882e-014 2.54444e-014
lhumerus -35.7807 -0.54616 82.8619
lradius 23.64
lwrist -0.157539
lhand -20.3583 6.68539
lfingers 7.12502
lthumb 5.99388 36.5806
rfemur -12.5015 -1.09276 20.1131
rtibia 52.7829
rfoot 5.61381 4.71367
rtoes -19.4258
lfemur -43.571 2.95225 -23.4303
ltibia 34.1197
lfoot -4.32217 1.73444
ltoes -8.04483
